<?xml version="1.0" standalone="no"?>
<!DOCTYPE svg PUBLIC "-//W3C//DTD SVG 20010904//EN"
 "http://www.w3.org/TR/2001/REC-SVG-20010904/DTD/svg10.dtd">
<svg version="1.0" xmlns="http://www.w3.org/2000/svg"
 width="1064.000000pt" height="773.000000pt" viewBox="0 0 1064.000000 773.000000"
 preserveAspectRatio="xMidYMid meet">
<metadata>
Created by Gabriela Adam.
</metadata>
<g transform="translate(0.000000,773.000000) scale(0.100000,-0.100000)"
fill="#03a9f4" stroke="none">
<path d="M2297 7053 c-43 -11 -2 -30 114 -53 68 -14 127 -26 132 -28 12 -4 16
-4 37 -7 11 -1 21 -3 23 -5 1 -1 11 -3 22 -4 48 -6 191 -40 199 -47 4 -4 -6
-15 -24 -24 -43 -22 -182 -165 -233 -239 -88 -130 -177 -371 -177 -483 0 -53
18 -38 30 25 6 31 20 84 32 117 25 72 115 248 140 275 10 11 19 23 19 27 0 11
39 61 77 100 18 18 30 33 26 33 -12 0 100 100 118 106 10 3 18 9 18 14 0 5 15
14 34 21 21 8 33 18 31 28 -2 19 -49 48 -90 54 -16 3 -86 17 -155 30 -69 14
-145 28 -170 32 -25 3 -67 10 -95 16 -75 15 -88 17 -108 12z"/>
<path d="M2539 6829 c-7 -4 -61 -25 -119 -45 -129 -46 -322 -144 -444 -226
-475 -322 -807 -679 -1035 -1112 -15 -28 -34 -62 -41 -76 -8 -14 -15 -27 -15
-30 -2 -9 -70 -145 -75 -150 -8 -8 -49 -109 -81 -200 -17 -47 -35 -94 -39
-105 -8 -17 -42 -171 -54 -245 -3 -14 -5 -27 -6 -30 -2 -3 -2 -8 -1 -12 0 -4
-3 -29 -8 -55 -19 -98 -26 -212 -17 -258 3 -11 5 -30 5 -41 1 -32 51 -83 88
-89 26 -4 39 1 69 27 64 56 66 62 139 503 37 222 138 552 231 755 36 78 141
256 209 356 19 29 110 148 130 171 126 146 263 283 438 438 7 6 41 33 77 60
36 27 70 54 76 60 6 5 22 17 34 25 12 8 31 23 42 33 12 9 25 17 29 17 4 0 14
7 22 15 9 8 93 51 189 96 95 44 181 88 191 98 18 18 18 18 -1 23 -11 3 -26 2
-33 -3z"/>
<path d="M8350 6281 c0 -4 18 -21 41 -36 83 -58 216 -231 274 -357 14 -30 45
-130 69 -221 45 -169 59 -207 69 -191 6 11 -54 286 -78 359 -37 111 -151 290
-237 372 -64 60 -138 101 -138 74z"/>
<path d="M8260 6187 c0 -2 36 -40 80 -84 130 -132 187 -231 260 -451 32 -94
51 -140 56 -129 13 36 -63 286 -118 387 -17 30 -46 76 -65 102 -44 60 -173
178 -195 178 -10 0 -18 -1 -18 -3z"/>
<path d="M4995 6070 c-49 -4 -164 -13 -255 -19 -252 -17 -462 -55 -670 -123
-61 -19 -212 -89 -236 -109 -14 -11 -92 18 -224 86 -235 119 -384 161 -548
152 -207 -10 -336 -71 -537 -252 -42 -37 -87 -76 -100 -87 -33 -25 -159 -176
-218 -260 -65 -90 -99 -170 -142 -328 -80 -297 -110 -511 -102 -740 12 -347
74 -542 341 -1060 65 -126 120 -284 140 -400 9 -49 17 -196 21 -350 9 -378 24
-467 102 -598 123 -208 336 -311 643 -312 152 0 251 34 372 126 77 59 112 104
158 199 73 152 74 167 75 650 1 382 3 435 18 477 33 90 91 173 138 199 18 10
64 13 178 11 85 -2 157 -5 160 -6 16 -10 583 -21 1041 -21 458 0 1025 11 1041
21 3 1 75 4 160 6 120 2 160 -1 180 -12 47 -26 102 -107 136 -197 16 -43 17
-93 18 -478 1 -483 2 -498 75 -650 46 -95 81 -140 158 -199 121 -92 220 -126
372 -126 307 1 520 104 643 312 78 131 93 220 102 593 3 161 12 296 21 355 23
138 84 305 161 445 348 624 403 1071 218 1755 -43 158 -77 238 -142 328 -59
84 -185 235 -218 260 -13 11 -58 50 -100 87 -201 181 -330 242 -537 252 -164
9 -313 -33 -548 -152 -58 -30 -129 -63 -158 -74 l-53 -20 -47 28 c-108 62
-231 105 -452 156 -102 24 -248 42 -530 66 -167 14 -733 20 -855 9z m-1506
-936 c27 -34 44 -121 45 -227 l1 -88 42 -19 c25 -11 54 -35 70 -58 l28 -40
211 5 c206 6 212 6 257 -17 53 -27 62 -56 26 -89 -28 -26 -102 -51 -149 -51
-20 0 -81 -6 -136 -14 -54 -8 -127 -17 -160 -20 -48 -4 -72 -12 -106 -36 l-45
-32 -6 -106 c-6 -111 -26 -199 -49 -213 -7 -5 -25 -9 -39 -9 -46 0 -62 51 -61
196 l1 123 -46 23 c-25 12 -53 33 -63 46 -18 23 -23 23 -217 27 -111 2 -216 8
-238 15 -109 32 -142 60 -125 105 12 33 54 50 150 63 82 11 300 7 368 -7 23
-4 42 -5 42 -1 0 4 17 24 37 45 l37 38 1 106 c1 132 19 215 53 242 33 25 47
24 71 -7z m3793 7 c34 -27 52 -110 53 -242 l1 -106 37 -38 c20 -21 37 -41 37
-45 0 -4 19 -3 43 1 67 14 285 18 367 7 96 -13 138 -30 150 -63 17 -45 -16
-73 -125 -105 -22 -7 -127 -13 -238 -15 -194 -4 -199 -4 -217 -27 -10 -13 -38
-34 -63 -46 l-46 -23 1 -123 c1 -145 -15 -196 -61 -196 -14 0 -32 4 -39 9 -23
14 -43 102 -49 213 l-6 106 -45 32 c-34 24 -58 32 -106 36 -33 3 -106 12 -160
20 -55 8 -116 14 -136 14 -47 0 -121 25 -149 51 -36 33 -27 62 26 89 45 23 51
23 257 17 l211 -5 28 40 c16 23 45 47 70 58 l42 19 1 88 c1 106 18 193 45 227
24 31 38 32 71 7z m-1866 -1144 c74 -43 100 -92 111 -204 8 -80 -15 -143 -64
-180 -31 -24 -44 -27 -113 -27 -69 0 -82 3 -113 27 -68 51 -85 167 -43 285 24
67 86 111 156 111 25 0 54 -5 66 -12z m-365 -109 c4 -6 9 -65 11 -131 5 -116
0 -152 -24 -168 -9 -6 -774 -2 -885 4 -29 2 -56 7 -60 11 -10 10 -3 233 8 263
8 22 13 23 106 23 170 1 758 12 761 15 7 7 77 -8 83 -17z m1019 8 c168 -3 353
-6 413 -6 104 0 108 -1 116 -23 11 -30 18 -253 8 -263 -4 -4 -31 -9 -60 -11
-111 -6 -876 -10 -885 -4 -24 16 -30 51 -26 156 7 151 8 153 47 157 17 2 43 3
57 1 14 -1 162 -5 330 -7z"/>
<path d="M9367 2950 c-14 -11 -29 -20 -34 -20 -5 0 -15 -10 -23 -21 -8 -12
-21 -27 -27 -35 -7 -7 -13 -17 -13 -23 0 -6 -4 -11 -10 -11 -5 0 -10 -7 -10
-15 0 -8 -4 -15 -10 -15 -5 0 -9 -3 -8 -7 1 -9 -6 -28 -35 -93 -11 -25 -21
-50 -22 -56 -2 -5 -12 -30 -24 -54 -11 -24 -21 -50 -21 -57 0 -8 -4 -11 -10
-8 -5 3 -10 -3 -10 -14 0 -12 -4 -21 -10 -21 -5 0 -10 -6 -10 -13 0 -7 -9 -29
-20 -50 -11 -21 -18 -42 -15 -47 4 -6 -1 -10 -9 -10 -10 0 -16 -9 -16 -25 0
-13 -7 -28 -15 -32 -8 -5 -16 -17 -18 -28 -1 -11 -10 -29 -20 -40 -9 -11 -16
-22 -15 -25 2 -3 -7 -19 -20 -37 -12 -17 -22 -36 -22 -41 0 -5 -7 -12 -15 -16
-8 -3 -15 -14 -15 -24 0 -11 -7 -25 -15 -32 -8 -7 -15 -18 -15 -24 0 -7 -11
-23 -25 -36 -14 -13 -25 -29 -25 -35 0 -7 -9 -20 -20 -30 -11 -10 -17 -21 -14
-26 2 -5 -4 -14 -16 -21 -11 -7 -20 -17 -20 -21 0 -5 -16 -25 -35 -45 -19 -20
-35 -43 -35 -49 0 -7 -7 -13 -15 -13 -9 0 -20 -10 -25 -22 -5 -13 -9 -20 -9
-15 -1 9 -41 -31 -41 -41 0 -5 -12 -15 -26 -22 -14 -8 -33 -27 -42 -42 -9 -15
-20 -28 -25 -28 -5 0 -23 -15 -42 -32 -78 -77 -91 -88 -101 -88 -6 0 -20 -11
-30 -25 -10 -14 -25 -25 -32 -25 -7 0 -26 -14 -42 -30 -16 -17 -36 -30 -45
-30 -8 0 -15 -4 -15 -10 0 -5 -6 -10 -13 -10 -8 0 -22 -9 -32 -20 -10 -11 -24
-20 -32 -20 -7 0 -13 -5 -13 -11 0 -5 -4 -7 -10 -4 -5 3 -10 2 -10 -2 0 -11
-56 -44 -62 -37 -3 3 -26 -9 -51 -26 -25 -16 -50 -30 -56 -30 -6 0 -11 -5 -11
-11 0 -5 -4 -8 -8 -5 -5 3 -18 -4 -30 -14 -12 -11 -28 -20 -36 -20 -8 0 -21
-6 -28 -13 -7 -8 -31 -22 -53 -31 -22 -10 -49 -23 -60 -29 -51 -27 -73 -37
-96 -39 -13 -2 -33 -11 -43 -20 -11 -10 -23 -19 -28 -19 -13 -2 -22 -5 -53
-18 -16 -7 -31 -12 -32 -12 -2 0 -18 -6 -38 -15 -19 -8 -35 -12 -35 -9 0 3 -9
1 -21 -5 -11 -7 -35 -14 -52 -16 -18 -3 -42 -7 -54 -9 -13 -3 -33 -7 -45 -9
-101 -20 -136 -27 -158 -32 -14 -3 -32 -7 -40 -7 -9 -1 -25 -10 -35 -21 -17
-16 -17 -18 -3 -13 10 3 20 2 23 -4 4 -5 10 -7 14 -4 11 6 76 16 136 21 28 2
61 7 75 11 28 8 40 10 90 17 87 13 102 16 123 28 12 6 22 10 22 9 0 -1 7 0 15
3 8 2 32 7 53 11 20 3 37 11 37 17 0 5 7 8 15 4 8 -3 21 1 29 9 8 8 25 15 38
15 13 0 29 5 35 11 6 6 17 12 24 14 35 8 59 18 59 24 0 4 12 8 28 9 15 1 29 7
30 12 2 6 10 10 18 10 8 0 22 4 32 9 75 40 162 80 162 75 0 -4 6 -2 13 4 6 6
17 11 22 13 30 8 65 24 65 30 0 4 13 10 30 14 16 4 36 16 44 27 8 11 19 18 24
14 5 -3 18 3 29 13 11 10 29 22 41 25 12 4 22 12 22 17 0 5 5 9 12 9 12 0 120
72 146 96 6 7 20 15 30 19 11 3 25 16 32 30 7 13 17 22 21 19 5 -3 20 6 34 20
14 15 30 26 35 26 6 0 10 5 10 10 0 6 6 10 13 10 8 0 20 11 27 25 7 14 21 25
30 25 9 0 23 11 30 25 7 14 17 25 21 25 8 0 159 146 159 154 0 13 44 55 52 50
4 -3 8 1 8 9 0 8 11 26 25 41 14 15 25 31 25 35 0 5 9 11 21 14 12 3 18 10 15
15 -3 6 7 22 24 35 16 14 30 30 30 35 0 8 18 31 67 87 10 11 18 23 18 27 0 4
8 17 18 28 9 11 17 25 17 30 0 6 5 10 10 10 6 0 10 7 10 15 0 8 4 15 9 15 5 0
19 21 32 48 12 26 29 55 37 65 8 9 12 17 7 17 -4 0 -2 7 5 15 7 8 9 15 5 15
-5 0 -1 8 7 18 16 18 50 80 54 97 5 25 34 84 43 87 5 1 12 16 15 31 3 16 9 34
15 40 5 7 10 15 10 20 1 4 1 8 2 10 4 13 10 46 12 64 1 13 5 23 8 23 3 0 5 12
3 27 -1 15 1 30 6 33 5 3 0 26 -11 51 -15 34 -28 48 -53 57 -41 15 -39 16 -69
-8z"/>
<path d="M2164 2144 c-13 -50 5 -128 48 -214 74 -147 205 -257 346 -288 65
-15 50 3 -27 33 -139 53 -224 132 -293 272 -35 70 -43 98 -46 154 -4 71 -17
89 -28 43z"/>
<path d="M2015 2057 c-14 -34 6 -127 45 -205 82 -163 256 -282 450 -308 34 -5
50 -3 50 5 0 6 -8 11 -18 11 -10 0 -61 13 -113 30 -145 45 -248 120 -319 230
-35 55 -70 146 -71 187 0 16 -4 37 -9 48 -7 18 -8 19 -15 2z"/>
<path d="M7195 1348 c-83 -122 -205 -248 -335 -345 -97 -73 -188 -125 -202
-117 -4 3 -8 1 -8 -4 0 -5 -13 -12 -30 -15 -38 -8 -39 -31 -2 -54 15 -10 29
-21 32 -24 3 -4 18 -11 33 -14 15 -4 27 -11 27 -16 0 -5 6 -9 14 -9 7 0 24 -8
37 -19 13 -10 32 -17 42 -15 10 1 21 -4 24 -12 3 -8 12 -14 20 -14 8 0 74 -29
146 -65 128 -63 160 -74 171 -57 9 15 -40 44 -256 153 -117 58 -208 110 -208
118 0 7 6 11 14 8 8 -3 20 1 27 9 7 8 19 13 28 12 9 -2 29 8 44 22 16 14 32
25 35 25 15 1 52 31 52 41 0 6 13 17 29 23 15 7 34 23 41 36 7 14 16 22 20 20
3 -2 19 12 35 30 15 19 32 32 36 29 5 -3 9 1 9 8 0 7 11 26 25 42 14 16 25 34
25 39 0 6 3 7 6 4 8 -8 69 80 104 148 14 27 30 55 37 62 9 10 8 53 -1 53 -1 0
-33 -46 -71 -102z"/>
</g>
</svg>
